SVGOMG

Powered by SVGO v3.0.0

Paste markup

    Contribute

5.03k → 3.65k 72.49%

<svg xmlns="http://www.w3.org/2000/svg" width="1056" height="402" fill="none"><g filter="url(#a)"><rect width="920.75" height="267.6" x="67.5" y="34" fill="url(#b)" rx="61.325"/><rect width="909.6" height="256.45" x="73.075" y="39.575" fill="url(#c)" rx="55.75"/><g filter="url(#d)"><rect width="887.3" height="234.15" x="84.225" y="50.725" fill="url(#e)" rx="44.6"/><g clip-path="url(#f)" filter="url(#g)"><path fill="url(#h)" fill-rule="evenodd" d="M161.591 133.206a2.788 2.788 0 0 1 2.542-1.643h31.592a2.786 2.786 0 0 1 2.42 4.17l-12.483 21.846h13.78a2.787 2.787 0 0 1 1.971 4.759l-40.884 40.883a2.787 2.787 0 0 1-4.675-2.647l6.568-26.27h-15.014a2.787 2.787 0 0 1-2.542-3.931l16.725-37.167Z" clip-rule="evenodd"/></g><g filter="url(#i)"><path fill="url(#j)" d="M268.958 197.8v-62.44h12.667l19.98 40.318 19.803-40.318h12.755v62.44h-10.704v-44.065l-17.661 35.323h-8.385l-17.751-35.234V197.8h-10.704Zm97.678 1.07c-4.46 0-8.384-.951-11.774-2.854-3.39-1.962-6.036-4.698-7.939-8.206-1.903-3.509-2.854-7.553-2.854-12.132 0-4.757.922-8.92 2.765-12.488 1.903-3.568 4.549-6.363 7.939-8.384 3.449-2.022 7.433-3.033 11.953-3.033 4.4 0 8.236.981 11.506 2.943 3.271 1.963 5.798 4.609 7.582 7.939 1.784 3.271 2.676 6.958 2.676 11.061v1.962c0 .714-.059 1.457-.178 2.23H351.74v-6.868h25.957c-.119-3.271-1.219-5.828-3.3-7.671-2.082-1.903-4.668-2.855-7.761-2.855-2.2 0-4.222.506-6.065 1.517-1.844 1.011-3.301 2.527-4.371 4.549-1.07 1.962-1.606 4.46-1.606 7.493v2.587c0 2.795.506 5.203 1.517 7.225 1.07 2.022 2.497 3.568 4.281 4.638 1.844 1.011 3.895 1.517 6.155 1.517 2.498 0 4.549-.536 6.155-1.606 1.665-1.07 2.884-2.498 3.657-4.282h10.883a20.938 20.938 0 0 1-4.104 7.582c-1.903 2.201-4.251 3.955-7.046 5.263-2.795 1.249-5.947 1.873-9.456 1.873Zm49.509-1.07c-3.033 0-5.679-.476-7.939-1.427-2.2-.952-3.924-2.528-5.173-4.728-1.249-2.2-1.873-5.173-1.873-8.92v-20.873h-7.672v-9.009h7.672l1.248-11.863h9.456v11.863h12.22v9.009h-12.22v20.873c0 2.26.475 3.836 1.427 4.728 1.011.832 2.676 1.249 4.995 1.249h5.53v9.098h-7.671Zm32.103 1.07c-3.687 0-6.749-.624-9.187-1.873-2.439-1.249-4.252-2.914-5.442-4.995-1.189-2.081-1.784-4.341-1.784-6.779 0-2.855.714-5.322 2.141-7.404 1.487-2.081 3.657-3.687 6.512-4.817 2.854-1.189 6.363-1.784 10.525-1.784h11.329c0-2.378-.327-4.341-.981-5.887-.655-1.605-1.666-2.795-3.033-3.568-1.368-.773-3.122-1.159-5.263-1.159-2.438 0-4.52.565-6.244 1.694-1.725 1.071-2.795 2.736-3.211 4.996h-10.526c.357-3.212 1.427-5.947 3.211-8.207 1.784-2.319 4.133-4.103 7.047-5.352 2.973-1.308 6.214-1.962 9.723-1.962 4.222 0 7.82.743 10.793 2.23 2.973 1.427 5.233 3.508 6.779 6.244 1.606 2.676 2.409 5.917 2.409 9.723v27.83h-9.099l-1.07-7.225a13.849 13.849 0 0 1-2.319 3.3 15.138 15.138 0 0 1-3.122 2.676c-1.19.714-2.557 1.279-4.103 1.695-1.487.416-3.182.624-5.085.624Zm2.409-8.474c1.724 0 3.24-.297 4.549-.892a10.305 10.305 0 0 0 3.479-2.676 13.165 13.165 0 0 0 2.319-3.924 18.825 18.825 0 0 0 1.07-4.55v-.178h-9.901c-2.081 0-3.806.268-5.174.803-1.367.476-2.349 1.189-2.943 2.141-.595.951-.892 2.051-.892 3.3 0 1.249.297 2.319.892 3.211.594.892 1.457 1.576 2.587 2.052 1.129.476 2.467.713 4.014.713Zm32.934 7.404v-64.224h10.704V197.8h-10.704Zm21.756 0v-64.224h10.704V197.8h-10.704Zm22.203 0v-44.957h10.704V197.8H527.55Zm5.352-52.093c-1.963 0-3.598-.594-4.906-1.784-1.249-1.249-1.873-2.765-1.873-4.549 0-1.843.624-3.33 1.873-4.46 1.308-1.189 2.943-1.784 4.906-1.784 1.962 0 3.568.595 4.817 1.784 1.308 1.13 1.962 2.617 1.962 4.46 0 1.784-.654 3.3-1.962 4.549-1.249 1.19-2.855 1.784-4.817 1.784Zm38.148 53.163c-4.4 0-8.355-.981-11.864-2.943-3.449-2.022-6.154-4.787-8.117-8.296-1.903-3.568-2.854-7.612-2.854-12.131 0-4.698.951-8.801 2.854-12.31 1.963-3.568 4.668-6.363 8.117-8.384 3.509-2.022 7.493-3.033 11.953-3.033 5.59 0 10.288 1.486 14.094 4.46 3.806 2.914 6.244 6.928 7.314 12.042h-11.239c-.595-2.26-1.843-4.044-3.746-5.352-1.844-1.308-4.044-1.963-6.601-1.963-2.2 0-4.222.565-6.066 1.695-1.784 1.13-3.211 2.765-4.281 4.906-1.011 2.141-1.517 4.728-1.517 7.761 0 2.319.298 4.37.892 6.154.595 1.784 1.427 3.301 2.498 4.55a12.374 12.374 0 0 0 3.835 2.765c1.428.654 2.974.981 4.639.981 1.724 0 3.271-.268 4.638-.803 1.427-.594 2.617-1.457 3.568-2.587 1.011-1.129 1.725-2.467 2.141-4.014h11.239c-1.07 4.996-3.508 9.01-7.314 12.042-3.806 2.974-8.534 4.46-14.183 4.46Zm52.168-1.07v-62.44h24.441c4.4 0 8.058.684 10.972 2.052 2.973 1.367 5.203 3.27 6.69 5.708 1.486 2.379 2.23 5.144 2.23 8.296 0 3.152-.684 5.798-2.052 7.939a13.53 13.53 0 0 1-5.441 4.906c-2.201 1.13-4.609 1.814-7.225 2.051l1.338-.981c2.794.06 5.292.803 7.492 2.23a15.634 15.634 0 0 1 5.352 5.62c1.309 2.26 1.963 4.787 1.963 7.582 0 3.27-.803 6.214-2.409 8.831-1.546 2.557-3.835 4.579-6.868 6.065-3.033 1.427-6.75 2.141-11.15 2.141h-25.333Zm10.704-8.742h13.023c3.509 0 6.244-.832 8.207-2.497 1.962-1.665 2.943-3.984 2.943-6.958 0-2.973-1.011-5.322-3.032-7.047-2.022-1.784-4.788-2.676-8.296-2.676h-12.845v19.178Zm0-27.295h12.221c3.449 0 6.065-.773 7.849-2.319 1.784-1.606 2.676-3.806 2.676-6.601 0-2.735-.892-4.876-2.676-6.422-1.784-1.606-4.43-2.409-7.939-2.409h-12.131v17.751Zm60.739 37.107c-3.627 0-6.749-.713-9.366-2.14-2.557-1.487-4.519-3.687-5.887-6.601-1.368-2.974-2.052-6.631-2.052-10.972v-26.314h10.704v25.244c0 3.865.803 6.809 2.409 8.831 1.665 1.962 4.162 2.943 7.492 2.943 2.141 0 4.044-.505 5.709-1.516 1.725-1.011 3.063-2.468 4.014-4.371 1.011-1.962 1.517-4.341 1.517-7.136v-23.995h10.704V197.8h-9.456l-.802-7.493c-1.368 2.617-3.36 4.698-5.977 6.244-2.557 1.546-5.56 2.319-9.009 2.319Zm55.796-1.07c-3.033 0-5.679-.476-7.939-1.427-2.2-.952-3.925-2.528-5.173-4.728-1.249-2.2-1.874-5.173-1.874-8.92v-20.873H727.8v-9.009h7.671l1.249-11.863h9.455v11.863h12.221v9.009h-12.221v20.873c0 2.26.476 3.836 1.428 4.728 1.011.832 2.676 1.249 4.995 1.249h5.53v9.098h-7.671Zm36.652 0c-3.033 0-5.679-.476-7.939-1.427-2.2-.952-3.924-2.528-5.173-4.728-1.249-2.2-1.873-5.173-1.873-8.92v-20.873h-7.672v-9.009h7.672l1.248-11.863h9.456v11.863h12.22v9.009h-12.22v20.873c0 2.26.475 3.836 1.427 4.728 1.011.832 2.676 1.249 4.995 1.249h5.53v9.098h-7.671Zm36.947 1.07c-4.282 0-8.147-.981-11.596-2.943-3.39-2.022-6.066-4.787-8.028-8.296-1.903-3.568-2.854-7.641-2.854-12.22 0-4.698.981-8.801 2.943-12.31 1.963-3.568 4.639-6.333 8.028-8.295 3.449-2.022 7.315-3.033 11.596-3.033 4.282 0 8.117 1.011 11.507 3.033 3.449 1.962 6.125 4.697 8.028 8.206 1.962 3.509 2.944 7.612 2.944 12.31 0 4.697-.982 8.801-2.944 12.309-1.962 3.509-4.668 6.274-8.117 8.296-3.39 1.962-7.225 2.943-11.507 2.943Zm0-9.187c2.141 0 4.074-.535 5.798-1.606 1.784-1.07 3.211-2.676 4.282-4.817 1.07-2.14 1.605-4.787 1.605-7.938 0-3.152-.535-5.769-1.605-7.85-1.011-2.141-2.409-3.746-4.193-4.817-1.724-1.07-3.657-1.605-5.798-1.605-2.081 0-4.014.535-5.798 1.605-1.784 1.071-3.211 2.676-4.281 4.817-1.071 2.081-1.606 4.698-1.606 7.85 0 3.151.535 5.798 1.606 7.938 1.07 2.141 2.468 3.747 4.192 4.817a11.064 11.064 0 0 0 5.798 1.606Zm32.154 8.117v-44.957h9.455l.803 7.493c1.368-2.617 3.33-4.698 5.887-6.244 2.557-1.546 5.59-2.319 9.099-2.319 3.627 0 6.719.773 9.276 2.319 2.557 1.487 4.52 3.687 5.888 6.601 1.427 2.914 2.14 6.541 2.14 10.882V197.8h-10.704v-25.244c0-3.746-.832-6.63-2.497-8.652-1.665-2.022-4.133-3.033-7.404-3.033-2.141 0-4.073.506-5.798 1.517-1.665 1.011-3.003 2.497-4.014 4.46-.951 1.903-1.427 4.222-1.427 6.957V197.8H856.21Z"/></g></g></g><defs><linearGradient id="b" x1="527.875" x2="527.875" y1="34" y2="301.6" gradientUnits="userSpaceOnUse"><stop stop-color="#128954"/><stop offset="1" stop-color="#1FAA6A"/></linearGradient><linearGradient id="c" x1="527.875" x2="527.875" y1="39.575" y2="296.025" gradientUnits="userSpaceOnUse"><stop stop-color="#79DCA8"/><stop offset=".5" stop-color="#0E5738"/><stop offset="1" stop-color="#79DCA8"/></linearGradient><linearGradient id="e" x1="527.875" x2="527.875" y1="50.725" y2="284.875" gradientUnits="userSpaceOnUse"><stop stop-color="#44C585"/><stop offset="1" stop-color="#128954"/></linearGradient><linearGradient id="h" x1="173.425" x2="173.425" y1="131.563" y2="204.038" gradientUnits="userSpaceOnUse"><stop stop-color="#F5F5F5"/><stop offset="1" stop-color="#CFF0E1"/></linearGradient><linearGradient id="j" x1="583.625" x2="583.625" y1="139.883" y2="215.258" gradientUnits="userSpaceOnUse"><stop stop-color="#F5F5F5"/><stop offset="1" stop-color="#CFF0E1"/></linearGradient><filter id="a" width="1054.55" height="401.4" x=".6" y=".55" color-interpolation-filters="sRGB" filterUnits="userSpaceOnUse"><feFlood flood-opacity="0" result="BackgroundImageFix"/><feColorMatrix in="SourceAlpha" result="hardAlpha" values="0 0 0 0 0 0 0 0 0 0 0 0 0 0 0 0 0 0 127 0"/><feOffset dy="33.45"/><feGaussianBlur stdDeviation="33.45"/><feComposite in2="hardAlpha" operator="out"/><feColorMatrix values="0 0 0 0 0.121569 0 0 0 0 0.666667 0 0 0 0 0.415686 0 0 0 0.16 0"/><feBlend in2="BackgroundImageFix" result="effect1_dropShadow_5_3039"/><feBlend in="SourceGraphic" in2="effect1_dropShadow_5_3039" result="shape"/></filter><filter id="d" width="887.3" height="234.15" x="84.225" y="50.725" color-interpolation-filters="sRGB" filterUnits="userSpaceOnUse"><feFlood flood-opacity="0" result="BackgroundImageFix"/><feBlend in="SourceGraphic" in2="BackgroundImageFix" result="shape"/><feColorMatrix in="SourceAlpha" result="hardAlpha" values="0 0 0 0 0 0 0 0 0 0 0 0 0 0 0 0 0 0 127 0"/><feOffset dy="-5.575"/><feComposite in2="hardAlpha" k2="-1" k3="1" operator="arithmetic"/><feColorMatrix values="0 0 0 0 1 0 0 0 0 1 0 0 0 0 1 0 0 0 0.24 0"/><feBlend in2="shape" result="effect1_innerShadow_5_3039"/></filter><filter id="g" width="68.758" height="83.625" x="136.258" y="128.775" color-interpolation-filters="sRGB" filterUnits="userSpaceOnUse"><feFlood flood-opacity="0" result="BackgroundImageFix"/><feColorMatrix in="SourceAlpha" result="hardAlpha" values="0 0 0 0 0 0 0 0 0 0 0 0 0 0 0 0 0 0 127 0"/><feOffset dx="-2.788" dy="2.788"/><feGaussianBlur stdDeviation="2.788"/><feComposite in2="hardAlpha" operator="out"/><feColorMatrix values="0 0 0 0 0 0 0 0 0 0 0 0 0 0 0 0 0 0 0.16 0"/><feBlend in2="BackgroundImageFix" 
result="effect1_dropShadow_5_3039"/><feBlend in="SourceGraphic" in2="effect1_dropShadow_5_3039" result="shape"/></filter><filter id="i" width="640.95" height="76.89" x="260.596" y="130.342" color-interpolation-filters="sRGB" filterUnits="userSpaceOnUse"><feFlood flood-opacity="0" result="BackgroundImageFix"/><feColorMatrix in="SourceAlpha" result="hardAlpha" values="0 0 0 0 0 0 0 0 0 0 0 0 0 0 0 0 0 0 127 0"/><feOffset dx="-2.788" dy="2.788"/><feGaussianBlur stdDeviation="2.788"/><feComposite in2="hardAlpha" operator="out"/><feColorMatrix values="0 0 0 0 0 0 0 0 0 0 0 0 0 0 0 0 0 0 0.16 0"/><feBlend in2="BackgroundImageFix" result="effect1_dropShadow_5_3039"/><feBlend in="SourceGraphic" in2="effect1_dropShadow_5_3039" result="shape"/></filter><clipPath id="f"><path fill="#fff" d="M128.825 123.2h89.2v89.2h-89.2z"/></clipPath></defs></svg>

